<svg width="36" height="36" viewBox="0 0 36 36" fill="none" xmlns="http://www.w3.org/2000/svg">
<path d="M18.45 18.33C19.2504 17.6372 19.8923 16.7803 20.3323 15.8175C20.7723 14.8547 21 13.8086 21 12.75C21 10.7609 20.2098 8.85322 18.8033 7.4467C17.3968 6.04018 15.4891 5.25 13.5 5.25C11.5109 5.25 9.60322 6.04018 8.1967 7.4467C6.79018 8.85322 6 10.7609 6 12.75C5.99999 13.8086 6.2277 14.8547 6.66769 15.8175C7.10767 16.7803 7.74963 17.6372 8.55 18.33C6.45021 19.2808 4.6687 20.8163 3.41847 22.7528C2.16824 24.6893 1.50221 26.945 1.5 29.25C1.5 29.6478 1.65804 30.0294 1.93934 30.3107C2.22064 30.592 2.60218 30.75 3 30.75C3.39782 30.75 3.77936 30.592 4.06066 30.3107C4.34196 30.0294 4.5 29.6478 4.5 29.25C4.5 26.8631 5.44821 24.5739 7.13604 22.886C8.82387 21.1982 11.1131 20.25 13.5 20.25C15.8869 20.25 18.1761 21.1982 19.864 22.886C21.5518 24.5739 22.5 26.8631 22.5 29.25C22.5 29.6478 22.658 30.0294 22.9393 30.3107C23.2206 30.592 23.6022 30.75 24 30.75C24.3978 30.75 24.7794 30.592 25.0607 30.3107C25.342 30.0294 25.5 29.6478 25.5 29.25C25.4978 26.945 24.8318 24.6893 23.5815 22.7528C22.3313 20.8163 20.5498 19.2808 18.45 18.33ZM13.5 17.25C12.61 17.25 11.74 16.9861 10.9999 16.4916C10.2599 15.9971 9.68314 15.2943 9.34254 14.4721C9.00195 13.6498 8.91283 12.745 9.08647 11.8721C9.2601 10.9992 9.68868 10.1974 10.318 9.56802C10.9474 8.93868 11.7492 8.5101 12.6221 8.33647C13.495 8.16283 14.3998 8.25195 15.2221 8.59254C16.0443 8.93314 16.7471 9.50991 17.2416 10.2499C17.7361 10.99 18 11.86 18 12.75C18 13.9435 17.5259 15.0881 16.682 15.932C15.8381 16.7759 14.6935 17.25 13.5 17.25ZM28.11 17.73C29.07 16.649 29.697 15.3136 29.9157 13.8845C30.1344 12.4554 29.9354 10.9936 29.3427 9.675C28.7499 8.35639 27.7887 7.23719 26.5747 6.45213C25.3607 5.66708 23.9457 5.24961 22.5 5.25C22.1022 5.25 21.7206 5.40804 21.4393 5.68934C21.158 5.97064 21 6.35218 21 6.75C21 7.14783 21.158 7.52936 21.4393 7.81066C21.7206 8.09196 22.1022 8.25 22.5 8.25C23.6935 8.25 24.8381 8.72411 25.682 9.56802C26.5259 10.4119 27 11.5565 27 12.75C26.9979 13.5379 26.7889 14.3114 26.3941 14.9931C25.9992 15.6749 25.4323 16.2411 24.75 16.635C24.5276 16.7633 24.3419 16.9465 24.2105 17.1671C24.0792 17.3877 24.0067 17.6384 24 17.895C23.9937 18.1496 24.0524 18.4017 24.1705 18.6274C24.2886 18.8531 24.4622 19.045 24.675 19.185L25.26 19.575L25.455 19.68C27.2631 20.5376 28.7885 21.894 29.8515 23.5895C30.9145 25.285 31.4708 27.2489 31.455 29.25C31.455 29.6478 31.613 30.0294 31.8943 30.3107C32.1756 30.592 32.5572 30.75 32.955 30.75C33.3528 30.75 33.7344 30.592 34.0157 30.3107C34.297 30.0294 34.455 29.6478 34.455 29.25C34.4673 26.9481 33.8907 24.6814 32.7802 22.6651C31.6697 20.6488 30.062 18.95 28.11 17.73Z" fill="#2E2B2F"/>
</svg>
