<svg width="27" height="31" viewBox="0 0 27 31" fill="none" xmlns="http://www.w3.org/2000/svg">
<path d="M13.5 2.53809C13.0146 2.53812 12.5455 2.71403 12.1807 3.03418L3.18066 10.9092L3.17969 10.9102C2.96648 11.0975 2.79592 11.3284 2.67871 11.5869C2.56148 11.8455 2.50037 12.1262 2.5 12.4102V25.5361C2.50006 26.0665 2.71092 26.5752 3.08594 26.9502C3.46097 27.3252 3.96964 27.5361 4.5 27.5361H8V19.5361C8 18.4753 8.42173 17.4572 9.17188 16.707C9.92196 15.9571 10.9393 15.5362 12 15.5361H15C16.0607 15.5361 17.078 15.9572 17.8281 16.707C18.5783 17.4572 19 18.4753 19 19.5361V27.5361H22.5C23.0303 27.5361 23.539 27.3252 23.9141 26.9502C24.2891 26.5752 24.4999 26.0665 24.5 25.5361V12.4102C24.4996 12.1262 24.4385 11.8455 24.3213 11.5869C24.2041 11.3284 24.0336 11.0975 23.8203 10.9102L23.8193 10.9092L14.8193 3.03418C14.4545 2.71409 13.9854 2.53809 13.5 2.53809ZM12 17.5361C11.4696 17.5362 10.961 17.747 10.5859 18.1221C10.211 18.4971 10 19.0058 10 19.5361V27.5361H17V19.5361C17 19.0057 16.7891 18.4971 16.4141 18.1221C16.039 17.747 15.5304 17.5361 15 17.5361H12ZM0.5 12.4219C0.495491 11.8537 0.611907 11.291 0.841797 10.7715C1.07103 10.2534 1.40732 9.7893 1.8291 9.41113L1.83008 9.41211L10.8301 1.52148L10.833 1.51855C11.5663 0.862646 12.5161 0.500035 13.5 0.5C14.4839 0.5 15.4336 0.862615 16.167 1.51855L16.1709 1.52148L25.1709 9.41211C25.5908 9.78872 25.9262 10.2501 26.1553 10.7656C26.385 11.2826 26.5026 11.8424 26.5 12.4082V25.5361C26.4999 26.5969 26.0782 27.6142 25.3281 28.3643C24.578 29.1143 23.5608 29.5361 22.5 29.5361H4.5C3.43921 29.5361 2.42198 29.1143 1.67188 28.3643C0.921785 27.6142 0.500062 26.5969 0.5 25.5361V12.4219Z" fill="#2E2B2F" stroke="#2E2B2F"/>
</svg>
