<svg width="36" height="36" viewBox="0 0 36 36" fill="none" xmlns="http://www.w3.org/2000/svg">
<path d="M30.2399 7.5C28.6499 5.90582 26.5421 4.93281 24.2974 4.75676C22.0527 4.5807 19.8191 5.2132 17.9999 6.54C16.0914 5.12046 13.7159 4.47677 11.3518 4.73856C8.9877 5.00035 6.81059 6.14817 5.25889 7.95088C3.70719 9.75359 2.89616 12.0773 2.98913 14.454C3.08209 16.8308 4.07215 19.084 5.75992 20.76L15.0749 30.09C15.855 30.8577 16.9055 31.2879 17.9999 31.2879C19.0943 31.2879 20.1449 30.8577 20.9249 30.09L30.2399 20.76C31.9913 18.9979 32.9743 16.6144 32.9743 14.13C32.9743 11.6456 31.9913 9.2621 30.2399 7.5ZM28.1249 18.69L18.8099 28.005C18.7039 28.112 18.5778 28.197 18.4387 28.255C18.2997 28.313 18.1506 28.3428 17.9999 28.3428C17.8493 28.3428 17.7001 28.313 17.5611 28.255C17.4221 28.197 17.2959 28.112 17.1899 28.005L7.87492 18.645C6.69856 17.4425 6.03984 15.8272 6.03984 14.145C6.03984 12.4628 6.69856 10.8475 7.87492 9.645C9.07366 8.46149 10.6904 7.79786 12.3749 7.79786C14.0595 7.79786 15.6762 8.46149 16.8749 9.645C17.0144 9.7856 17.1803 9.89719 17.3631 9.97334C17.5458 10.0495 17.7419 10.0887 17.9399 10.0887C18.1379 10.0887 18.334 10.0495 18.5168 9.97334C18.6996 9.89719 18.8655 9.7856 19.0049 9.645C20.2037 8.46149 21.8204 7.79786 23.5049 7.79786C25.1895 7.79786 26.8062 8.46149 28.0049 9.645C29.1975 10.8317 29.8778 12.4383 29.9002 14.1205C29.9227 15.8028 29.2854 17.4269 28.1249 18.645V18.69Z" fill="#2E2B2F"/>
</svg>
