<svg xmlns="http://www.w3.org/2000/svg">
    <defs>
        <symbol id="icon-image_plus" viewBox="0 0 24 24" fill="currentColor">
            <path d="M19 10C18.73 10 18.48 10.11 18.29 10.29C18.11 10.48 18 10.73 18 11V14.38L16.52 12.9C16 12.38 15.29 12.09 14.55 12.09C13.82 12.09 13.11 12.38 12.59 12.9L11.89 13.61L9.41 11.12C8.89 10.6 8.18 10.31 7.45 10.31C6.71 10.31 6 10.6 5.48 11.12L4 12.61V7C4 6.73 4.11 6.48 4.29 6.29C4.48 6.11 4.73 6 5 6H13C13.27 6 13.52 5.89 13.71 5.71C13.89 5.52 14 5.27 14 5C14 4.73 13.89 4.48 13.71 4.29C13.52 4.11 13.27 4 13 4H5C4.2 4 3.44 4.32 2.88 4.88C2.32 5.44 2 6.2 2 7V19.22C2 19.96 2.3 20.66 2.82 21.18C3.34 21.7 4.04 22 4.78 22H17.22C17.49 22 17.76 21.96 18.02 21.88C18.6 21.72 19.11 21.37 19.47 20.89C19.83 20.41 20.02 19.83 20.02 19.23V11C20.02 10.87 19.99 10.74 19.94 10.61C19.89 10.49 19.82 10.38 19.72 10.29C19.63 10.19 19.51 10.12 19.39 10.07C19.27 10.02 19.13 10 19 10ZM5 20C4.73 20 4.48 19.89 4.29 19.71C4.11 19.52 4 19.27 4 19V15.43L6.89 12.54C7.04 12.39 7.23 12.31 7.44 12.31C7.65 12.31 7.84 12.39 7.99 12.54L15.46 20H5ZM18 19C17.99 19.19 17.93 19.38 17.82 19.54L13.3 15L14.01 14.3C14.08 14.23 14.17 14.17 14.26 14.13C14.36 14.09 14.46 14.07 14.56 14.07C14.66 14.07 14.76 14.09 14.86 14.13C14.95 14.17 15.04 14.23 15.11 14.3L18 17.21V19ZM21 4H20V3C20 2.73 19.89 2.48 19.71 2.29C19.52 2.11 19.27 2 19 2C18.73 2 18.48 2.11 18.29 2.29C18.11 2.48 18 2.73 18 3V4H17C16.73 4 16.48 4.11 16.29 4.29C16.11 4.48 16 4.73 16 5C16 5.27 16.11 5.52 16.29 5.71C16.48 5.89 16.73 6 17 6H18V7C18 7.27 18.11 7.52 18.29 7.71C18.48 7.89 18.73 8 19 8C19.27 8 19.52 7.89 19.71 7.71C19.89 7.52 20 7.27 20 7V6H21C21.27 6 21.52 5.89 21.71 5.71C21.89 5.52 22 5.27 22 5C22 4.73 21.89 4.48 21.71 4.29C21.52 4.11 21.27 4 21 4Z"
            />

        </symbol>
        <symbol id="icon-gallery" viewBox="0 0 24 24" fill="currentColor">
            <path d="M19 2H5C4.2 2 3.44 2.32 2.88 2.88C2.32 3.44 2 4.2 2 5V19C2 19.8 2.32 20.56 2.88 21.12C3.44 21.68 4.2 22 5 22H19C19.16 22 19.33 21.98 19.49 21.95L19.79 21.88H19.86H19.91L20.28 21.74L20.41 21.67C20.51 21.61 20.62 21.56 20.72 21.49C20.85 21.39 20.98 21.28 21.1 21.17L21.17 21.08C21.27 20.98 21.36 20.87 21.44 20.76L21.53 20.63C21.6 20.52 21.66 20.4 21.71 20.28C21.74 20.23 21.76 20.18 21.78 20.13C21.83 20.01 21.86 19.88 21.9 19.75V19.6C21.96 19.4 21.99 19.2 22 19V5C22 4.2 21.68 3.44 21.12 2.88C20.56 2.32 19.8 2 19 2ZM5 20C4.73 20 4.48 19.89 4.29 19.71C4.11 19.52 4 19.27 4 19V14.69L7.29 11.39C7.38 11.3 7.49 11.22 7.62 11.17C7.74 11.12 7.87 11.09 8 11.09C8.13 11.09 8.26 11.12 8.38 11.17C8.51 11.22 8.62 11.3 8.71 11.39L17.31 20H5ZM20 19C20 19.12 19.98 19.25 19.93 19.36C19.91 19.41 19.88 19.46 19.85 19.5C19.82 19.54 19.79 19.58 19.76 19.62L14.41 14.27L15.29 13.39C15.38 13.3 15.49 13.22 15.62 13.17C15.74 13.12 15.87 13.09 16 13.09C16.13 13.09 16.26 13.12 16.38 13.17C16.51 13.22 16.62 13.3 16.71 13.39L20 16.69V19ZM20 13.86L18.12 12C17.55 11.46 16.79 11.15 16 11.15C15.21 11.15 14.45 11.46 13.88 12L13 12.88L10.12 10C9.55 9.46 8.79 9.15 8 9.15C7.21 9.15 6.45 9.46 5.88 10L4 11.86V5C4 4.73 4.11 4.48 4.29 4.29C4.48 4.11 4.73 4 5 4H19C19.27 4 19.52 4.11 19.71 4.29C19.89 4.48 20 4.73 20 5V13.86Z"
            />

        </symbol>
        <symbol id="icon-home" viewBox="0 0 24 24" fill="currentColor">
            <path d="M20 8L14 2.74C13.45 2.25 12.74 1.98 12 1.98C11.26 1.98 10.55 2.25 10 2.74L4 8C3.68 8.28 3.43 8.63 3.26 9.02C3.08 9.41 3 9.83 3 10.26V19C3 19.8 3.32 20.56 3.88 21.12C4.44 21.68 5.2 22 6 22H18C18.8 22 19.56 21.68 20.12 21.12C20.68 20.56 21 19.8 21 19V10.25C21 9.83 20.91 9.41 20.74 9.02C20.57 8.63 20.32 8.28 20 8ZM14 20H10V15C10 14.73 10.11 14.48 10.29 14.29C10.48 14.11 10.73 14 11 14H13C13.27 14 13.52 14.11 13.71 14.29C13.89 14.48 14 14.73 14 15V20ZM19 19C19 19.27 18.89 19.52 18.71 19.71C18.52 19.89 18.27 20 18 20H16V15C16 14.2 15.68 13.44 15.12 12.88C14.56 12.32 13.8 12 13 12H11C10.2 12 9.44 12.32 8.88 12.88C8.32 13.44 8 14.2 8 15V20H6C5.73 20 5.48 19.89 5.29 19.71C5.11 19.52 5 19.27 5 19V10.25C5 10.11 5.03 9.97 5.09 9.84C5.15 9.71 5.23 9.59 5.34 9.5L11.34 4.25C11.52 4.09 11.76 4 12 4C12.24 4 12.48 4.09 12.66 4.25L18.66 9.5C18.77 9.59 18.85 9.71 18.91 9.84C18.97 9.97 19 10.11 19 10.25V19Z"
            />

        </symbol>
        <symbol id="icon-paint_tool" viewBox="0 0 24 24" fill="currentColor">
            <g filter="url(#filter0_d_9_87)">
                <path d="M19 1H11C10.2 1 9.44 1.32 8.88 1.88C8.32 2.44 8 3.2 8 4H7C6.2 4 5.44 4.32 4.88 4.88C4.32 5.44 4 6.2 4 7V10C4 10.8 4.32 11.56 4.88 12.12C5.44 12.68 6.2 13 7 13H13C13.27 13 13.52 13.11 13.71 13.29C13.89 13.48 14 13.73 14 14V15C13.47 15 12.96 15.21 12.59 15.59C12.21 15.96 12 16.47 12 17V21C12 21.53 12.21 22.04 12.59 22.41C12.96 22.79 13.47 23 14 23H16C16.53 23 17.04 22.79 17.41 22.41C17.79 22.04 18 21.53 18 21V17C18 16.47 17.79 15.96 17.41 15.59C17.04 15.21 16.53 15 16 15V14C16 13.2 15.68 12.44 15.12 11.88C14.56 11.32 13.8 11 13 11H7C6.73 11 6.48 10.89 6.29 10.71C6.11 10.52 6 10.27 6 10V7C6 6.73 6.11 6.48 6.29 6.29C6.48 6.11 6.73 6 7 6H8C8 6.8 8.32 7.56 8.88 8.12C9.44 8.68 10.2 9 11 9H19C19.8 9 20.56 8.68 21.12 8.12C21.68 7.56 22 6.8 22 6V4C22 3.2 21.68 2.44 21.12 1.88C20.56 1.32 19.8 1 19 1ZM16 17V21H14V17H16ZM20 6C20 6.27 19.89 6.52 19.71 6.71C19.52 6.89 19.27 7 19 7H11C10.73 7 10.48 6.89 10.29 6.71C10.11 6.52 10 6.27 10 6V4C10 3.73 10.11 3.48 10.29 3.29C10.48 3.11 10.73 3 11 3H19C19.27 3 19.52 3.11 19.71 3.29C19.89 3.48 20 3.73 20 4V6Z"
                />
            </g>
            <defs>
                <filter id="filter0_d_9_87" x="-3" y="0" width="32" height="32" filterUnits="userSpaceOnUse"
                        color-interpolation-filters="sRGB">
                    <feFlood flood-opacity="0" result="BackgroundImageFix"/>
                    <feColorMatrix in="SourceAlpha" type="matrix" values="0 0 0 0 0 0 0 0 0 0 0 0 0 0 0 0 0 0 127 0"
                                   result="hardAlpha"/>
                    <feOffset dy="4"/>
                    <feGaussianBlur stdDeviation="2"/>
                    <feComposite in2="hardAlpha" operator="out"/>
                    <feColorMatrix type="matrix" values="0 0 0 0 0 0 0 0 0 0 0 0 0 0 0 0 0 0 0.25 0"/>
                    <feBlend mode="normal" in2="BackgroundImageFix" result="effect1_dropShadow_9_87"/>
                    <feBlend mode="normal" in="SourceGraphic" in2="effect1_dropShadow_9_87" result="shape"/>
                </filter>
            </defs>

        </symbol>
        <symbol id="icon-palette" viewBox="0 0 24 24" fill="currentColor">
            <path d="M7.42 15.54C7.23 15.73 7.13 15.98 7.13 16.25C7.13 16.51 7.23 16.76 7.42 16.95C7.51 17.04 7.62 17.12 7.75 17.17C7.87 17.22 8 17.25 8.13 17.25C8.26 17.25 8.39 17.22 8.51 17.17C8.64 17.12 8.75 17.04 8.84 16.95C9.03 16.76 9.13 16.51 9.13 16.25C9.13 15.98 9.03 15.73 8.84 15.54C8.75 15.45 8.64 15.37 8.51 15.32C8.39 15.27 8.26 15.24 8.13 15.24C8 15.24 7.87 15.27 7.75 15.32C7.62 15.37 7.51 15.45 7.42 15.54ZM7.42 7.05C7.23 7.24 7.13 7.49 7.13 7.76C7.13 8.02 7.23 8.27 7.42 8.46C7.51 8.55 7.62 8.63 7.75 8.68C7.87 8.73 8 8.76 8.13 8.76C8.26 8.76 8.39 8.73 8.51 8.68C8.64 8.63 8.75 8.55 8.84 8.46C9.03 8.27 9.13 8.02 9.13 7.76C9.13 7.49 9.03 7.24 8.84 7.05C8.75 6.96 8.64 6.88 8.51 6.83C8.39 6.78 8.26 6.75 8.13 6.75C8 6.75 7.87 6.78 7.75 6.83C7.62 6.88 7.51 6.96 7.42 7.05ZM12.37 17.05C12.17 17.05 11.98 17.11 11.81 17.22C11.65 17.33 11.52 17.48 11.45 17.67C11.37 17.85 11.35 18.05 11.39 18.25C11.43 18.44 11.52 18.62 11.66 18.76C11.8 18.9 11.98 18.99 12.17 19.03C12.37 19.07 12.57 19.05 12.75 18.97C12.94 18.9 13.09 18.77 13.2 18.61C13.31 18.44 13.37 18.25 13.37 18.05C13.38 17.91 13.36 17.78 13.31 17.65C13.26 17.52 13.19 17.41 13.1 17.31C13 17.21 12.89 17.13 12.76 17.08C12.64 17.03 12.51 17 12.37 17V17.05ZM6.37 11.05C6.17 11.05 5.98 11.11 5.81 11.22C5.65 11.33 5.52 11.48 5.45 11.67C5.37 11.85 5.35 12.05 5.39 12.25C5.43 12.44 5.52 12.62 5.66 12.76C5.8 12.9 5.98 12.99 6.17 13.03C6.37 13.07 6.57 13.05 6.75 12.97C6.94 12.9 7.09 12.77 7.2 12.61C7.31 12.44 7.37 12.25 7.37 12.05C7.38 11.91 7.36 11.78 7.31 11.65C7.26 11.52 7.19 11.41 7.1 11.31C7 11.21 6.89 11.13 6.76 11.08C6.64 11.03 6.51 11 6.37 11V11.05ZM12.37 5.05C12.17 5.05 11.98 5.11 11.81 5.22C11.65 5.33 11.52 5.48 11.45 5.67C11.37 5.85 11.35 6.05 11.39 6.25C11.43 6.44 11.52 6.62 11.66 6.76C11.8 6.9 11.98 6.99 12.17 7.03C12.37 7.07 12.57 7.05 12.75 6.97C12.94 6.9 13.09 6.77 13.2 6.61C13.31 6.44 13.37 6.25 13.37 6.05C13.38 5.91 13.36 5.78 13.31 5.65C13.26 5.52 13.19 5.41 13.1 5.31C13 5.21 12.89 5.13 12.76 5.08C12.64 5.03 12.51 5 12.37 5V5.05ZM15.91 7.1C15.77 7.24 15.67 7.42 15.63 7.61C15.6 7.81 15.62 8.01 15.69 8.19C15.77 8.37 15.89 8.53 16.06 8.64C16.22 8.75 16.42 8.81 16.61 8.81C16.81 8.81 17.01 8.75 17.17 8.64C17.34 8.53 17.46 8.37 17.54 8.19C17.61 8.01 17.63 7.81 17.6 7.61C17.56 7.42 17.46 7.24 17.32 7.1C17.14 6.91 16.89 6.79 16.63 6.78C16.36 6.77 16.1 6.87 15.91 7.05V7.1ZM22.21 7.1C21.3 5.27 19.89 3.74 18.15 2.66C16.41 1.59 14.41 1.02 12.37 1.02C10.32 1.02 8.32 1.59 6.58 2.67C4.84 3.74 3.44 5.28 2.53 7.11C1.62 8.94 1.23 10.99 1.42 13.02C1.6 15.06 2.35 17 3.58 18.63C4.81 20.27 6.47 21.53 8.37 22.27C10.28 23.01 12.35 23.21 14.36 22.84C14.87 22.74 15.35 22.55 15.78 22.27C16.21 21.98 16.57 21.62 16.86 21.19C17.17 20.73 17.38 20.2 17.49 19.66C17.59 19.11 17.59 18.55 17.47 18C17.41 17.67 17.37 17.34 17.37 17C17.37 16.03 17.66 15.08 18.19 14.27C18.73 13.46 19.48 12.83 20.37 12.44C20.85 12.23 21.28 11.92 21.63 11.53C21.99 11.14 22.26 10.69 22.43 10.19C22.6 9.68 22.67 9.15 22.64 8.61C22.6 8.08 22.45 7.56 22.21 7.08V7.1ZM20.51 9.54C20.42 9.78 20.29 10 20.12 10.19C19.95 10.37 19.74 10.52 19.51 10.63C18.28 11.18 17.23 12.07 16.5 13.2C15.77 14.33 15.37 15.65 15.37 17C15.37 17.47 15.42 17.94 15.51 18.4C15.57 18.68 15.58 18.97 15.52 19.26C15.47 19.54 15.36 19.81 15.2 20.05C15.07 20.26 14.89 20.44 14.68 20.58C14.47 20.72 14.24 20.81 13.99 20.85C13.46 20.95 12.91 21 12.37 21C11.16 21 9.97 20.76 8.86 20.29C7.75 19.82 6.74 19.13 5.9 18.27C5.07 17.4 4.41 16.37 3.97 15.25C3.54 14.13 3.33 12.93 3.37 11.72C3.45 9.47 4.36 7.33 5.93 5.72C7.49 4.11 9.61 3.14 11.85 3H12.36C14.04 3 15.68 3.47 17.1 4.35C18.53 5.24 19.68 6.5 20.42 8C20.65 8.47 20.68 9.02 20.51 9.52V9.54ZM12.37 11C12.17 11 11.98 11.06 11.81 11.17C11.65 11.28 11.52 11.43 11.45 11.62C11.37 11.8 11.35 12 11.39 12.2C11.43 12.39 11.52 12.57 11.66 12.71C11.8 12.85 11.98 12.94 12.17 12.98C12.37 13.02 12.57 13 12.75 12.92C12.94 12.85 13.09 12.72 13.2 12.56C13.31 12.39 13.37 12.2 13.37 12C13.37 11.73 13.26 11.48 13.08 11.29C12.89 11.11 12.64 11 12.37 11Z"
            />

        </symbol>
        <symbol id="icon-import" viewBox="0 0 24 24" fill="currentColor">
            <path d="M21 14C20.73 14 20.48 14.11 20.29 14.29C20.11 14.48 20 14.73 20 15V19C20 19.27 19.89 19.52 19.71 19.71C19.52 19.89 19.27 20 19 20H5C4.73 20 4.48 19.89 4.29 19.71C4.11 19.52 4 19.27 4 19V15C4 14.73 3.89 14.48 3.71 14.29C3.52 14.11 3.27 14 3 14C2.73 14 2.48 14.11 2.29 14.29C2.11 14.48 2 14.73 2 15V19C2 19.8 2.32 20.56 2.88 21.12C3.44 21.68 4.2 22 5 22H19C19.8 22 20.56 21.68 21.12 21.12C21.68 20.56 22 19.8 22 19V15C22 14.73 21.89 14.48 21.71 14.29C21.52 14.11 21.27 14 21 14ZM11.29 15.71C11.39 15.8 11.5 15.87 11.62 15.92C11.74 15.97 11.87 16 12 16C12.13 16 12.26 15.97 12.38 15.92C12.5 15.87 12.61 15.8 12.71 15.71L16.71 11.71C16.9 11.52 17 11.27 17 11C17 10.73 16.9 10.48 16.71 10.29C16.52 10.1 16.27 10 16 10C15.73 10 15.48 10.1 15.29 10.29L13 12.59V3C13 2.73 12.89 2.48 12.71 2.29C12.52 2.11 12.27 2 12 2C11.73 2 11.48 2.11 11.29 2.29C11.11 2.48 11 2.73 11 3V12.59L8.71 10.29C8.62 10.2 8.51 10.12 8.38 10.07C8.26 10.02 8.13 10 8 10C7.87 10 7.74 10.02 7.62 10.07C7.49 10.12 7.38 10.2 7.29 10.29C7.2 10.38 7.12 10.49 7.07 10.62C7.02 10.74 7 10.87 7 11C7 11.13 7.02 11.26 7.07 11.38C7.12 11.51 7.2 11.62 7.29 11.71L11.29 15.71Z"
            />

        </symbol>
        <symbol id="icon-like" viewBox="0 0 24 24" fill="currentColor">
            <path d="M20.16 5C19.1 3.94 17.69 3.29 16.2 3.17C14.7 3.05 13.21 3.48 12 4.36C10.73 3.41 9.14 2.98 7.57 3.16C5.99 3.33 4.54 4.1 3.51 5.3C2.47 6.5 1.93 8.05 1.99 9.64C2.05 11.22 2.71 12.72 3.84 13.84L10.05 20.06C10.57 20.57 11.27 20.86 12 20.86C12.73 20.86 13.43 20.57 13.95 20.06L20.16 13.84C21.33 12.67 21.98 11.08 21.98 9.42C21.98 7.76 21.33 6.17 20.16 5ZM18.75 12.46L12.54 18.67C12.47 18.74 12.39 18.8 12.29 18.84C12.2 18.88 12.1 18.9 12 18.9C11.9 18.9 11.8 18.88 11.71 18.84C11.61 18.8 11.53 18.74 11.46 18.67L5.25 12.43C4.47 11.63 4.03 10.55 4.03 9.43C4.03 8.31 4.47 7.23 5.25 6.43C6.05 5.64 7.13 5.2 8.25 5.2C9.37 5.2 10.45 5.64 11.25 6.43C11.34 6.52 11.45 6.6 11.58 6.65C11.7 6.7 11.83 6.73 11.96 6.73C12.09 6.73 12.22 6.7 12.34 6.65C12.47 6.6 12.58 6.52 12.67 6.43C13.47 5.64 14.55 5.2 15.67 5.2C16.79 5.2 17.87 5.64 18.67 6.43C19.46 7.22 19.92 8.29 19.93 9.41C19.95 10.54 19.52 11.62 18.75 12.43V12.46Z"
            />

        </symbol>
        <symbol id="icon-export" viewBox="0 0 24 24" fill="currentColor">
            <path d="M8.71 7.71L11 5.41V15C11 15.27 11.11 15.52 11.29 15.71C11.48 15.89 11.73 16 12 16C12.27 16 12.52 15.89 12.71 15.71C12.89 15.52 13 15.27 13 15V5.41L15.29 7.71C15.38 7.8 15.49 7.88 15.62 7.93C15.74 7.98 15.87 8.01 16 8.01C16.13 8.01 16.26 7.98 16.38 7.93C16.51 7.88 16.62 7.8 16.71 7.71C16.8 7.62 16.88 7.51 16.93 7.38C16.98 7.26 17.01 7.13 17.01 7C17.01 6.87 16.98 6.74 16.93 6.62C16.88 6.49 16.8 6.38 16.71 6.29L12.71 2.29C12.61 2.2 12.5 2.13 12.38 2.08C12.14 1.98 11.86 1.98 11.62 2.08C11.5 2.13 11.39 2.2 11.29 2.29L7.29 6.29C7.2 6.38 7.12 6.49 7.07 6.62C7.02 6.74 7 6.87 7 7C7 7.13 7.02 7.26 7.07 7.38C7.12 7.51 7.2 7.62 7.29 7.71C7.38 7.8 7.49 7.88 7.62 7.93C7.74 7.98 7.87 8 8 8C8.13 8 8.26 7.98 8.38 7.93C8.51 7.88 8.62 7.8 8.71 7.71ZM21 14C20.73 14 20.48 14.11 20.29 14.29C20.11 14.48 20 14.73 20 15V19C20 19.27 19.89 19.52 19.71 19.71C19.52 19.89 19.27 20 19 20H5C4.73 20 4.48 19.89 4.29 19.71C4.11 19.52 4 19.27 4 19V15C4 14.73 3.89 14.48 3.71 14.29C3.52 14.11 3.27 14 3 14C2.73 14 2.48 14.11 2.29 14.29C2.11 14.48 2 14.73 2 15V19C2 19.8 2.32 20.56 2.88 21.12C3.44 21.68 4.2 22 5 22H19C19.8 22 20.56 21.68 21.12 21.12C21.68 20.56 22 19.8 22 19V15C22 14.73 21.89 14.48 21.71 14.29C21.52 14.11 21.27 14 21 14Z"
            />

        </symbol>
        <symbol id="icon-angle_right_b" viewBox="0 0 24 24" fill="currentColor">
            <path d="M15.54 11.29L9.88 5.64C9.79 5.55 9.68 5.47 9.55 5.42C9.43 5.37 9.3 5.34 9.17 5.34C9.04 5.34 8.91 5.37 8.79 5.42C8.66 5.47 8.55 5.55 8.46 5.64C8.27 5.83 8.17 6.08 8.17 6.35C8.17 6.61 8.27 6.86 8.46 7.05L13.41 12.05L8.46 17C8.27 17.19 8.17 17.44 8.17 17.7C8.17 17.97 8.27 18.22 8.46 18.41C8.55 18.5 8.66 18.58 8.78 18.63C8.91 18.68 9.04 18.71 9.17 18.71C9.3 18.71 9.43 18.68 9.56 18.63C9.68 18.58 9.79 18.5 9.88 18.41L15.54 12.76C15.64 12.67 15.72 12.55 15.78 12.43C15.83 12.3 15.86 12.16 15.86 12.03C15.86 11.89 15.83 11.75 15.78 11.62C15.72 11.5 15.64 11.38 15.54 11.29Z"
            />

        </symbol>
        <symbol id="icon-angle_right" viewBox="0 0 24 24" fill="currentColor">
            <path d="M14.83 11.29L10.59 7.05C10.5 6.96 10.39 6.88 10.26 6.83C10.14 6.78 10.01 6.75 9.88 6.75C9.75 6.75 9.62 6.78 9.5 6.83C9.37 6.88 9.26 6.96 9.17 7.05C8.98 7.24 8.88 7.49 8.88 7.75C8.88 8.02 8.98 8.27 9.17 8.46L12.71 12L9.17 15.54C8.98 15.73 8.88 15.98 8.88 16.24C8.88 16.51 8.98 16.76 9.17 16.95C9.26 17.04 9.37 17.12 9.5 17.17C9.62 17.22 9.75 17.24 9.88 17.24C10.01 17.24 10.14 17.22 10.26 17.17C10.39 17.12 10.5 17.04 10.59 16.95L14.83 12.71C14.92 12.62 15 12.51 15.05 12.38C15.1 12.26 15.13 12.13 15.13 12C15.13 11.87 15.1 11.74 15.05 11.62C15 11.49 14.92 11.38 14.83 11.29Z"
            />

        </symbol>
        <symbol id="icon-user" viewBox="0 0 20 20" fill="currentColor">
            <path d="M13.71 10.71C14.7 9.94 15.42 8.88 15.77 7.69C16.12 6.49 16.09 5.21 15.68 4.03C15.27 2.86 14.5 1.83 13.48 1.11C12.46 0.39 11.24 0 9.99 0C8.73 0 7.51 0.39 6.49 1.11C5.47 1.83 4.7 2.86 4.29 4.03C3.88 5.21 3.85 6.49 4.2 7.69C4.55 8.88 5.27 9.94 6.26 10.71C4.57 11.38 3.1 12.5 1.99 13.94C0.89 15.38 0.21 17.09 0.01 18.88C-0.01 19.02 0 19.15 0.04 19.28C0.08 19.4 0.14 19.52 0.22 19.62C0.39 19.83 0.63 19.96 0.9 19.99C1.17 20.02 1.43 19.95 1.64 19.78C1.85 19.61 1.99 19.37 2.02 19.1C2.24 17.15 3.17 15.35 4.65 14.04C6.12 12.73 8.03 12 10.01 12C11.98 12 13.89 12.73 15.36 14.04C16.84 15.35 17.77 17.15 17.99 19.1C18.02 19.35 18.14 19.58 18.33 19.74C18.51 19.91 18.75 20 19 19.99H19.11C19.37 19.96 19.61 19.83 19.78 19.63C19.95 19.42 20.02 19.16 19.99 18.89C19.79 17.09 19.1 15.38 18 13.94C16.89 12.49 15.41 11.38 13.71 10.71V10.71ZM9.99 10C9.19 10 8.41 9.77 7.75 9.33C7.09 8.89 6.58 8.26 6.27 7.53C5.97 6.8 5.89 6 6.04 5.22C6.2 4.45 6.58 3.73 7.14 3.18C7.7 2.62 8.42 2.24 9.2 2.08C9.98 1.93 10.79 2.01 11.52 2.31C12.26 2.61 12.89 3.12 13.33 3.78C13.77 4.44 14 5.21 14 6C14 7.06 13.58 8.08 12.83 8.83C12.07 9.58 11.05 10 9.99 10Z"/>
        </symbol>
        <symbol id="icon-community" viewBox="0 0 24 24" fill="currentColor">
            <path d="M12.3 12.22C12.83 11.76 13.26 11.19 13.55 10.54C13.85 9.9 14 9.21 14 8.5C14 7.17 13.47 5.9 12.54 4.96C11.6 4.03 10.33 3.5 9 3.5C7.67 3.5 6.4 4.03 5.46 4.96C4.53 5.9 4 7.17 4 8.5C4 9.21 4.15 9.9 4.45 10.54C4.74 11.19 5.17 11.76 5.7 12.22C4.3 12.85 3.11 13.88 2.28 15.17C1.45 16.46 1 17.96 1 19.5C1 19.77 1.11 20.02 1.29 20.21C1.48 20.39 1.73 20.5 2 20.5C2.27 20.5 2.52 20.39 2.71 20.21C2.89 20.02 3 19.77 3 19.5C3 17.91 3.63 16.38 4.76 15.26C5.88 14.13 7.41 13.5 9 13.5C10.59 13.5 12.12 14.13 13.24 15.26C14.37 16.38 15 17.91 15 19.5C15 19.77 15.11 20.02 15.29 20.21C15.48 20.39 15.73 20.5 16 20.5C16.27 20.5 16.52 20.39 16.71 20.21C16.89 20.02 17 19.77 17 19.5C17 17.96 16.55 16.46 15.72 15.17C14.89 13.88 13.7 12.85 12.3 12.22ZM9 11.5C8.41 11.5 7.83 11.32 7.33 10.99C6.84 10.66 6.46 10.2 6.23 9.65C6 9.1 5.94 8.5 6.06 7.91C6.17 7.33 6.46 6.8 6.88 6.38C7.3 5.96 7.83 5.67 8.41 5.56C9 5.44 9.6 5.5 10.15 5.73C10.7 5.96 11.16 6.34 11.49 6.83C11.82 7.33 12 7.91 12 8.5C12 9.3 11.68 10.06 11.12 10.62C10.56 11.18 9.8 11.5 9 11.5ZM18.74 11.82C19.38 11.1 19.8 10.21 19.94 9.26C20.09 8.3 19.96 7.33 19.56 6.45C19.17 5.57 18.53 4.82 17.72 4.3C16.91 3.78 15.96 3.5 15 3.5C14.73 3.5 14.48 3.61 14.29 3.79C14.11 3.98 14 4.23 14 4.5C14 4.77 14.11 5.02 14.29 5.21C14.48 5.39 14.73 5.5 15 5.5C15.8 5.5 16.56 5.82 17.12 6.38C17.68 6.94 18 7.7 18 8.5C18 9.03 17.86 9.54 17.6 10C17.33 10.45 16.95 10.83 16.5 11.09C16.35 11.18 16.23 11.3 16.14 11.44C16.05 11.59 16 11.76 16 11.93C16 12.1 16.03 12.27 16.11 12.42C16.19 12.57 16.31 12.7 16.45 12.79L16.84 13.05L16.97 13.12C18.18 13.69 19.19 14.6 19.9 15.73C20.61 16.86 20.98 18.17 20.97 19.5C20.97 19.77 21.08 20.02 21.26 20.21C21.45 20.39 21.7 20.5 21.97 20.5C22.24 20.5 22.49 20.39 22.68 20.21C22.86 20.02 22.97 19.77 22.97 19.5C22.98 17.97 22.59 16.45 21.85 15.11C21.11 13.77 20.04 12.63 18.74 11.82Z"
            />

        </symbol>
        <symbol id="icon-volume_down" viewBox="0 0 24 24" fill="currentColor">
            <path d="M18.83 9.17C18.74 9.08 18.63 9 18.5 8.95C18.38 8.9 18.25 8.88 18.12 8.88C17.99 8.88 17.86 8.9 17.74 8.95C17.61 9 17.5 9.08 17.41 9.17C17.32 9.26 17.24 9.37 17.19 9.5C17.14 9.62 17.12 9.75 17.12 9.88C17.12 10.01 17.14 10.14 17.19 10.26C17.24 10.39 17.32 10.5 17.41 10.59C17.79 10.96 18 11.47 18 12C18 12.29 17.94 12.58 17.81 12.84C17.69 13.11 17.51 13.34 17.29 13.53C17.19 13.61 17.11 13.72 17.04 13.83C16.98 13.95 16.94 14.08 16.93 14.21C16.92 14.34 16.93 14.47 16.97 14.6C17.01 14.72 17.08 14.84 17.16 14.94C17.24 15.04 17.35 15.12 17.46 15.18C17.58 15.24 17.71 15.28 17.84 15.29C17.97 15.3 18.1 15.29 18.23 15.25C18.35 15.21 18.47 15.14 18.57 15.06C19.02 14.69 19.38 14.22 19.62 13.69C19.87 13.16 20 12.58 20 12C19.99 10.94 19.57 9.92 18.83 9.17ZM14.43 4.1C14.27 4.03 14.09 4 13.91 4.02C13.74 4.05 13.57 4.11 13.43 4.22L8.65 8H5C4.73 8 4.48 8.11 4.29 8.29C4.11 8.48 4 8.73 4 9V15C4 15.27 4.11 15.52 4.29 15.71C4.48 15.89 4.73 16 5 16H8.65L13.38 19.78C13.56 19.92 13.77 20 14 20C14.15 20 14.3 19.97 14.43 19.9C14.6 19.82 14.74 19.69 14.84 19.53C14.95 19.37 15 19.19 15 19V5C15 4.81 14.95 4.63 14.84 4.47C14.74 4.31 14.6 4.18 14.43 4.1ZM13 16.92L9.62 14.22C9.44 14.08 9.23 14 9 14H6V10H9C9.23 10 9.44 9.92 9.62 9.78L13 7.08V16.92Z"
            />

        </symbol>
        <symbol id="icon-volume_mute" viewBox="0 0 24 24" fill="currentColor">
            <path d="M12.43 4.1C12.27 4.03 12.09 4 11.91 4.02C11.74 4.05 11.57 4.11 11.43 4.22L6.65 8H3C2.73 8 2.48 8.11 2.29 8.29C2.11 8.48 2 8.73 2 9V15C2 15.27 2.11 15.52 2.29 15.71C2.48 15.89 2.73 16 3 16H6.65L11.38 19.78C11.56 19.92 11.77 20 12 20C12.15 20 12.3 19.97 12.43 19.9C12.6 19.82 12.74 19.69 12.84 19.53C12.95 19.37 13 19.19 13 19V5C13 4.81 12.95 4.63 12.84 4.47C12.74 4.31 12.6 4.18 12.43 4.1ZM11 16.92L7.62 14.22C7.44 14.08 7.23 14 7 14H4V10H7C7.23 10 7.44 9.92 7.62 9.78L11 7.08V16.92ZM19.91 12L21.71 10.21C21.8 10.12 21.88 10.01 21.93 9.88C21.98 9.76 22 9.63 22 9.5C22 9.37 21.98 9.24 21.93 9.12C21.88 8.99 21.8 8.88 21.71 8.79C21.62 8.7 21.51 8.62 21.38 8.57C21.26 8.52 21.13 8.5 21 8.5C20.87 8.5 20.74 8.52 20.62 8.57C20.49 8.62 20.38 8.7 20.29 8.79L18.5 10.59L16.71 8.79C16.52 8.6 16.27 8.5 16 8.5C15.73 8.5 15.48 8.6 15.29 8.79C15.1 8.98 15 9.23 15 9.5C15 9.77 15.1 10.02 15.29 10.21L17.09 12L15.29 13.79C15.2 13.88 15.12 13.99 15.07 14.12C15.02 14.24 14.99 14.37 14.99 14.5C14.99 14.63 15.02 14.76 15.07 14.88C15.12 15.01 15.2 15.12 15.29 15.21C15.38 15.3 15.49 15.38 15.62 15.43C15.74 15.48 15.87 15.51 16 15.51C16.13 15.51 16.26 15.48 16.38 15.43C16.51 15.38 16.62 15.3 16.71 15.21L18.5 13.41L20.29 15.21C20.38 15.3 20.49 15.38 20.62 15.43C20.74 15.48 20.87 15.51 21 15.51C21.13 15.51 21.26 15.48 21.38 15.43C21.51 15.38 21.62 15.3 21.71 15.21C21.8 15.12 21.88 15.01 21.93 14.88C21.98 14.76 22.01 14.63 22.01 14.5C22.01 14.37 21.98 14.24 21.93 14.12C21.88 13.99 21.8 13.88 21.71 13.79L19.91 12Z"
            />

        </symbol>
        <symbol id="icon-volume_off" viewBox="0 0 24 24" fill="currentColor">
            <path d="M16.93 4.1C16.77 4.03 16.59 4 16.41 4.02C16.24 4.05 16.07 4.11 15.93 4.22L11.15 8H7.5C7.23 8 6.98 8.11 6.79 8.29C6.61 8.48 6.5 8.73 6.5 9V15C6.5 15.27 6.61 15.52 6.79 15.71C6.98 15.89 7.23 16 7.5 16H11.15L15.88 19.78C16.06 19.92 16.27 20 16.5 20C16.65 20 16.8 19.97 16.93 19.9C17.1 19.82 17.24 19.69 17.34 19.53C17.45 19.37 17.5 19.19 17.5 19V5C17.5 4.81 17.45 4.63 17.34 4.47C17.24 4.31 17.1 4.18 16.93 4.1ZM15.5 16.92L12.12 14.22C11.94 14.08 11.73 14 11.5 14H8.5V10H11.5C11.73 10 11.94 9.92 12.12 9.78L15.5 7.08V16.92Z"
            />

        </symbol>
        <symbol id="icon-volume_up" viewBox="0 0 24 24" fill="currentColor">
            <path d="M12.43 4.1C12.27 4.03 12.09 4 11.91 4.02C11.74 4.05 11.57 4.11 11.43 4.22L6.65 8H3C2.73 8 2.48 8.11 2.29 8.29C2.11 8.48 2 8.73 2 9V15C2 15.27 2.11 15.52 2.29 15.71C2.48 15.89 2.73 16 3 16H6.65L11.38 19.78C11.56 19.92 11.77 20 12 20C12.15 20 12.3 19.97 12.43 19.9C12.6 19.82 12.74 19.69 12.84 19.53C12.95 19.37 13 19.19 13 19V5C13 4.81 12.95 4.63 12.84 4.47C12.74 4.31 12.6 4.18 12.43 4.1ZM11 16.92L7.62 14.22C7.44 14.08 7.23 14 7 14H4V10H7C7.23 10 7.44 9.92 7.62 9.78L11 7.08V16.92ZM15.14 4.09C15.01 4.07 14.88 4.08 14.75 4.11C14.62 4.15 14.5 4.2 14.39 4.28C14.29 4.36 14.2 4.46 14.13 4.58C14.06 4.69 14.02 4.82 14 4.95C13.98 5.08 13.99 5.22 14.02 5.34C14.06 5.47 14.11 5.59 14.19 5.7C14.36 5.91 14.59 6.05 14.86 6.09C16.28 6.31 17.57 7.03 18.5 8.11C19.43 9.2 19.95 10.59 19.95 12.02C19.95 13.45 19.43 14.84 18.5 15.93C17.57 17.01 16.28 17.73 14.86 17.95C14.59 17.97 14.35 18.09 14.17 18.29C14 18.49 13.91 18.75 13.93 19.02C13.95 19.29 14.07 19.53 14.27 19.71C14.47 19.88 14.73 19.97 15 19.95H15.14C17.03 19.66 18.76 18.71 20.01 17.26C21.26 15.81 21.94 13.95 21.94 12.04C21.94 10.13 21.26 8.27 20.01 6.82C18.76 5.37 17.03 4.42 15.14 4.13V4.09ZM14.68 13.87C14.41 13.91 14.18 14.06 14.02 14.28C13.86 14.49 13.8 14.76 13.84 15.03C13.88 15.3 14.03 15.53 14.25 15.69C14.46 15.85 14.73 15.91 15 15.87C15.11 15.87 15.22 15.85 15.32 15.82C16.1 15.54 16.77 15.03 17.25 14.36C17.73 13.68 17.98 12.88 17.98 12.05C17.98 11.22 17.73 10.42 17.25 9.74C16.77 9.07 16.1 8.56 15.32 8.28C15.07 8.2 14.79 8.21 14.55 8.33C14.32 8.45 14.13 8.66 14.05 8.91C13.97 9.16 13.98 9.44 14.1 9.68C14.22 9.91 14.43 10.1 14.68 10.18C15.06 10.32 15.39 10.58 15.62 10.91C15.85 11.25 15.97 11.64 15.97 12.05C15.97 12.46 15.85 12.85 15.62 13.19C15.39 13.52 15.06 13.78 14.68 13.92V13.87Z"
            />

        </symbol>
        <symbol id="icon-volume" viewBox="0 0 24 24" fill="currentColor">
            <path d="M12.43 4.1C12.27 4.03 12.09 4 11.91 4.02C11.74 4.05 11.57 4.11 11.43 4.22L6.65 8H3C2.73 8 2.48 8.11 2.29 8.29C2.11 8.48 2 8.73 2 9V15C2 15.27 2.11 15.52 2.29 15.71C2.48 15.89 2.73 16 3 16H6.65L11.38 19.78C11.56 19.92 11.77 20 12 20C12.15 20 12.3 19.97 12.43 19.9C12.6 19.82 12.74 19.69 12.84 19.53C12.95 19.37 13 19.19 13 19V5C13 4.81 12.95 4.63 12.84 4.47C12.74 4.31 12.6 4.18 12.43 4.1ZM11 16.92L7.62 14.22C7.44 14.08 7.23 14 7 14H4V10H7C7.23 10 7.44 9.92 7.62 9.78L11 7.08V16.92ZM19.66 6.34C19.47 6.15 19.22 6.05 18.95 6.05C18.68 6.05 18.43 6.15 18.24 6.34C18.05 6.53 17.95 6.78 17.95 7.05C17.95 7.32 18.05 7.57 18.24 7.76C18.83 8.35 19.29 9.05 19.59 9.83C19.89 10.6 20.03 11.43 20 12.26C19.96 13.1 19.75 13.91 19.38 14.66C19.02 15.4 18.5 16.06 17.86 16.6C17.71 16.73 17.59 16.91 17.54 17.11C17.49 17.3 17.5 17.51 17.57 17.7C17.64 17.89 17.77 18.06 17.93 18.18C18.1 18.29 18.3 18.36 18.5 18.36C18.73 18.36 18.96 18.28 19.14 18.13C19.99 17.42 20.68 16.54 21.18 15.54C21.67 14.54 21.95 13.46 22 12.35C22.04 11.24 21.86 10.13 21.46 9.1C21.06 8.06 20.44 7.12 19.66 6.34ZM16.83 9.17C16.74 9.08 16.63 9 16.5 8.95C16.38 8.9 16.25 8.88 16.12 8.88C15.99 8.88 15.86 8.9 15.74 8.95C15.61 9 15.5 9.08 15.41 9.17C15.32 9.26 15.24 9.37 15.19 9.5C15.14 9.62 15.12 9.75 15.12 9.88C15.12 10.01 15.14 10.14 15.19 10.26C15.24 10.39 15.32 10.5 15.41 10.59C15.79 10.96 16 11.47 16 12C16 12.29 15.94 12.58 15.81 12.84C15.69 13.11 15.51 13.34 15.29 13.53C15.19 13.61 15.11 13.72 15.04 13.83C14.98 13.95 14.94 14.08 14.93 14.21C14.92 14.34 14.93 14.47 14.97 14.6C15.01 14.72 15.08 14.84 15.16 14.94C15.24 15.04 15.35 15.12 15.46 15.18C15.58 15.24 15.71 15.28 15.84 15.29C15.97 15.3 16.1 15.29 16.23 15.25C16.35 15.21 16.47 15.14 16.57 15.06C17.02 14.69 17.38 14.22 17.62 13.69C17.87 13.16 18 12.58 18 12C17.99 10.94 17.57 9.92 16.83 9.17Z"
            />

        </symbol>
        <symbol id="icon-play_circle" viewBox="0 0 24 24" fill="currentColor">
            <path d="M16 10.27L11 7.38C10.7 7.2 10.35 7.11 10 7.11C9.65 7.11 9.3 7.2 9 7.38C8.7 7.55 8.44 7.81 8.27 8.11C8.09 8.41 8 8.76 8 9.11V14.89C8 15.24 8.09 15.59 8.27 15.89C8.44 16.19 8.7 16.44 9 16.62C9.3 16.8 9.65 16.89 10 16.89C10.35 16.89 10.7 16.8 11 16.62L16 13.73C16.3 13.55 16.55 13.3 16.73 13C16.9 12.69 17 12.35 17 12C17 11.65 16.9 11.31 16.73 11C16.55 10.7 16.3 10.45 16 10.27ZM15 12L10 14.89V9.11L15 12ZM12 2C10.02 2 8.09 2.59 6.44 3.69C4.8 4.78 3.52 6.35 2.76 8.17C2 10 1.81 12.01 2.19 13.95C2.58 15.89 3.53 17.67 4.93 19.07C6.33 20.47 8.11 21.42 10.05 21.81C11.99 22.19 14 22 15.83 21.24C17.65 20.48 19.22 19.2 20.31 17.56C21.41 15.91 22 13.98 22 12C22 10.69 21.74 9.39 21.24 8.17C20.74 6.96 20 5.86 19.07 4.93C18.14 4 17.04 3.26 15.83 2.76C14.61 2.26 13.31 2 12 2ZM12 20C10.42 20 8.87 19.53 7.56 18.65C6.24 17.77 5.21 16.52 4.61 15.06C4 13.6 3.85 11.99 4.15 10.44C4.46 8.89 5.22 7.46 6.34 6.34C7.46 5.22 8.89 4.46 10.44 4.15C11.99 3.85 13.6 4 15.06 4.61C16.52 5.21 17.77 6.24 18.65 7.56C19.53 8.87 20 10.42 20 12C20 14.12 19.16 16.16 17.66 17.66C16.16 19.16 14.12 20 12 20Z"
            />

        </symbol>
        <symbol id="icon-play" viewBox="0 0 24 24" fill="currentColor">
            <path d="M18.54 9L8.88 3.46C8.36 3.16 7.76 3 7.16 3C6.56 3 5.96 3.16 5.44 3.47C4.92 3.77 4.49 4.21 4.19 4.74C3.9 5.26 3.74 5.86 3.75 6.46V17.58C3.75 18.49 4.11 19.36 4.75 20C5.39 20.64 6.26 21 7.17 21C7.77 21 8.36 20.84 8.88 20.54L18.54 15C19.06 14.7 19.49 14.27 19.79 13.75C20.09 13.23 20.25 12.64 20.25 12.04C20.25 11.44 20.09 10.85 19.79 10.33C19.49 9.81 19.06 9.38 18.54 9.08V9ZM17.54 13.19L7.88 18.81C7.66 18.93 7.42 19 7.17 19C6.92 19 6.68 18.93 6.46 18.81C6.24 18.69 6.06 18.51 5.94 18.29C5.82 18.07 5.75 17.83 5.75 17.58V6.42C5.75 6.17 5.82 5.93 5.94 5.71C6.06 5.49 6.24 5.31 6.46 5.19C6.68 5.07 6.92 5 7.17 5C7.42 5.01 7.66 5.07 7.88 5.19L17.54 10.77C17.76 10.89 17.94 11.07 18.06 11.29C18.18 11.51 18.25 11.75 18.25 12C18.25 12.25 18.18 12.49 18.06 12.71C17.94 12.93 17.76 13.11 17.54 13.23V13.19Z"
            />

        </symbol>
        <symbol id="icon-github" viewBox="0 0 24 24" fill="currentColor">
            <path d="M10.07 20.5C10.07 20.36 10.04 20.21 9.98 20.08C9.91 19.95 9.82 19.83 9.71 19.73C9.6 19.64 9.47 19.57 9.32 19.54C9.18 19.5 9.03 19.49 8.89 19.52C7.58 19.76 5.93 19.8 5.49 18.56C5.1 17.61 4.47 16.77 3.65 16.15C3.59 16.11 3.54 16.08 3.48 16.04C3.41 15.85 3.29 15.69 3.12 15.57C2.95 15.45 2.76 15.39 2.55 15.39H2.55C2.28 15.39 2.03 15.5 1.84 15.68C1.66 15.87 1.55 16.12 1.55 16.39C1.54 17.2 2.36 17.72 2.69 17.9C3.08 18.29 3.39 18.75 3.61 19.26C3.98 20.28 5.04 21.84 8.08 21.64C8.08 21.67 8.08 21.71 8.08 21.74L8.09 22C8.09 22.27 8.19 22.52 8.38 22.71C8.57 22.9 8.82 23 9.09 23C9.35 23 9.61 22.9 9.79 22.71C9.98 22.52 10.09 22.27 10.09 22L10.08 21.68C10.08 21.5 10.07 21.22 10.07 20.5ZM20.74 5.38C20.77 5.25 20.8 5.11 20.83 4.96C20.99 3.84 20.85 2.71 20.42 1.66C20.37 1.53 20.28 1.41 20.18 1.31C20.07 1.21 19.94 1.13 19.8 1.08C19.45 0.96 18.13 0.73 15.62 2.33C13.53 1.84 11.36 1.84 9.27 2.33C6.76 0.75 5.45 0.97 5.1 1.08C4.96 1.12 4.83 1.2 4.72 1.3C4.61 1.4 4.53 1.52 4.47 1.66C4.03 2.72 3.89 3.88 4.07 5.02C4.09 5.15 4.12 5.27 4.15 5.37C3.32 6.48 2.88 7.82 2.89 9.2C2.89 9.51 2.9 9.82 2.93 10.13C3.27 14.73 6.27 16.11 8.36 16.58C8.31 16.71 8.27 16.84 8.24 16.98C8.18 17.24 8.22 17.51 8.36 17.74C8.49 17.97 8.71 18.13 8.97 18.19C9.23 18.26 9.5 18.21 9.73 18.08C9.95 17.94 10.12 17.72 10.18 17.46C10.24 17.13 10.41 16.82 10.65 16.59C10.79 16.46 10.9 16.29 10.95 16.1C11.01 15.92 11 15.72 10.94 15.53C10.89 15.35 10.78 15.19 10.63 15.06C10.48 14.94 10.3 14.86 10.1 14.84C6.65 14.45 5.15 13.04 4.92 9.94C4.9 9.7 4.89 9.45 4.89 9.2C4.87 8.22 5.2 7.26 5.81 6.49C5.87 6.41 5.94 6.33 6.01 6.26C6.13 6.12 6.21 5.95 6.24 5.77C6.28 5.59 6.26 5.41 6.19 5.23C6.13 5.05 6.07 4.87 6.04 4.68C5.96 4.14 5.98 3.59 6.12 3.06C6.99 3.31 7.8 3.71 8.53 4.24C8.65 4.32 8.79 4.38 8.93 4.4C9.07 4.42 9.22 4.41 9.36 4.38C11.38 3.83 13.51 3.83 15.53 4.38C15.67 4.42 15.82 4.42 15.96 4.4C16.11 4.38 16.24 4.32 16.36 4.24C17.09 3.7 17.9 3.3 18.77 3.05C18.9 3.56 18.93 4.1 18.86 4.63C18.82 4.83 18.76 5.04 18.69 5.23C18.62 5.41 18.6 5.59 18.64 5.77C18.67 5.95 18.75 6.12 18.87 6.26C18.95 6.35 19.03 6.44 19.1 6.53C19.7 7.29 20.02 8.23 20 9.2C20 9.46 19.99 9.72 19.96 9.98C19.74 13.04 18.24 14.44 14.77 14.84C14.57 14.86 14.39 14.94 14.24 15.06C14.09 15.19 13.98 15.35 13.93 15.54C13.87 15.72 13.86 15.92 13.92 16.1C13.97 16.29 14.08 16.46 14.22 16.59C14.47 16.83 14.63 17.15 14.69 17.49C14.76 17.76 14.79 18.04 14.78 18.31V20.65C14.77 21.29 14.77 21.78 14.77 22C14.77 22.27 14.88 22.52 15.06 22.71C15.25 22.9 15.5 23 15.77 23C16.04 23 16.29 22.9 16.48 22.71C16.66 22.52 16.77 22.27 16.77 22C16.77 21.79 16.77 21.31 16.78 20.66V18.31C16.79 17.87 16.74 17.43 16.63 17C16.59 16.86 16.55 16.72 16.51 16.59C18.03 16.33 19.41 15.55 20.41 14.37C21.41 13.2 21.95 11.7 21.95 10.16C21.99 9.84 22 9.52 22 9.2C22.02 7.82 21.58 6.47 20.74 5.38L20.74 5.38Z"
            />

        </symbol>
        <symbol id="icon-check" viewBox="0 0 24 24" fill="currentColor">
            <path d="M18.71 7.21C18.62 7.12 18.51 7.04 18.38 6.99C18.26 6.94 18.13 6.91 18 6.91C17.87 6.91 17.74 6.94 17.62 6.99C17.49 7.04 17.38 7.12 17.29 7.21L9.84 14.67L6.71 11.53C6.61 11.44 6.5 11.36 6.37 11.31C6.25 11.27 6.12 11.24 5.98 11.24C5.85 11.25 5.72 11.27 5.59 11.33C5.47 11.38 5.36 11.46 5.27 11.55C5.17 11.65 5.1 11.77 5.05 11.89C5 12.02 4.98 12.15 4.98 12.28C4.98 12.42 5.01 12.55 5.06 12.67C5.12 12.8 5.19 12.91 5.29 13L9.13 16.84C9.22 16.93 9.33 17.01 9.46 17.06C9.58 17.11 9.71 17.14 9.84 17.14C9.97 17.14 10.1 17.11 10.22 17.06C10.35 17.01 10.46 16.93 10.55 16.84L18.71 8.68C18.81 8.59 18.89 8.47 18.95 8.35C19 8.22 19.03 8.08 19.03 7.94C19.03 7.81 19 7.67 18.95 7.54C18.89 7.42 18.81 7.3 18.71 7.21Z"
            />

        </symbol>
    </defs>
</svg>