<svg width="36" height="36" viewBox="0 0 36 36" fill="none" xmlns="http://www.w3.org/2000/svg">
<path d="M27 1.5H15C13.8065 1.5 12.6619 1.97411 11.818 2.81802C10.9741 3.66193 10.5 4.80653 10.5 6H9C7.80653 6 6.66193 6.47411 5.81802 7.31802C4.97411 8.16193 4.5 9.30653 4.5 10.5V15C4.5 16.1935 4.97411 17.3381 5.81802 18.182C6.66193 19.0259 7.80653 19.5 9 19.5H18C18.3978 19.5 18.7794 19.658 19.0607 19.9393C19.342 20.2206 19.5 20.6022 19.5 21V22.5C18.7044 22.5 17.9413 22.8161 17.3787 23.3787C16.8161 23.9413 16.5 24.7044 16.5 25.5V31.5C16.5 32.2956 16.8161 33.0587 17.3787 33.6213C17.9413 34.1839 18.7044 34.5 19.5 34.5H22.5C23.2956 34.5 24.0587 34.1839 24.6213 33.6213C25.1839 33.0587 25.5 32.2956 25.5 31.5V25.5C25.5 24.7044 25.1839 23.9413 24.6213 23.3787C24.0587 22.8161 23.2956 22.5 22.5 22.5V21C22.5 19.8065 22.0259 18.6619 21.182 17.818C20.3381 16.9741 19.1935 16.5 18 16.5H9C8.60218 16.5 8.22064 16.342 7.93934 16.0607C7.65804 15.7794 7.5 15.3978 7.5 15V10.5C7.5 10.1022 7.65804 9.72064 7.93934 9.43934C8.22064 9.15804 8.60218 9 9 9H10.5C10.5 10.1935 10.9741 11.3381 11.818 12.182C12.6619 13.0259 13.8065 13.5 15 13.5H27C28.1935 13.5 29.3381 13.0259 30.182 12.182C31.0259 11.3381 31.5 10.1935 31.5 9V6C31.5 4.80653 31.0259 3.66193 30.182 2.81802C29.3381 1.97411 28.1935 1.5 27 1.5ZM22.5 25.5V31.5H19.5V25.5H22.5ZM28.5 9C28.5 9.39782 28.342 9.77936 28.0607 10.0607C27.7794 10.342 27.3978 10.5 27 10.5H15C14.6022 10.5 14.2206 10.342 13.9393 10.0607C13.658 9.77936 13.5 9.39782 13.5 9V6C13.5 5.60218 13.658 5.22064 13.9393 4.93934C14.2206 4.65804 14.6022 4.5 15 4.5H27C27.3978 4.5 27.7794 4.65804 28.0607 4.93934C28.342 5.22064 28.5 5.60218 28.5 6V9Z" fill="#2E2B2F"/>
</svg>
